<?xml version="1.0" ?><svg id="Layer_1" style="enable-background:new 0 0 30 30;" version="1.1" viewBox="0 0 30 30" xml:space="preserve" xmlns="http://www.w3.org/2000/svg" xmlns:xlink="http://www.w3.org/1999/xlink"><style type="text/css">
	.st0{fill:#A14F4C;}
	.st1{fill:#F0C419;}
	.st2{fill:none;stroke:#000000;stroke-width:0.8;stroke-linecap:round;stroke-linejoin:round;stroke-miterlimit:10;}
</style><g><g><path class="st0" d="M14.921,1.353c0,0-4.745,4.709-0.084,11.194C14.871,12.543,21.143,7.847,14.921,1.353z"/><path class="st0" d="M3.904,6.766c0,0,0.649,6.653,8.62,7.142C12.542,13.879,12.869,6.051,3.904,6.766z"/><path class="st0" d="M0.844,18.813c0,0,5.814,3.299,11.063-2.179C11.897,16.603,5.831,11.875,0.844,18.813z"/><path class="st0" d="M8.661,28.618c0,0,6.229-2.425,5.297-9.954C13.928,18.652,6.431,20.37,8.661,28.618z"/><path class="st0" d="M21.118,28.649c0,0,2.056-6.46-4.607-10.291C16.481,18.374,13.041,25.419,21.118,28.649z"/><path class="st0" d="M26.268,6.817c0,0-6.748-0.646-9.087,6.675C17.203,13.518,24.815,15.394,26.268,6.817z"/><path class="st0" d="M29.438,19.084c0,0-4.548-6.016-11.452-2.638C17.983,16.479,22.241,23.971,29.438,19.084z"/></g><ellipse class="st1" cx="15.191" cy="15.5" rx="2.247" ry="2.345"/><g><g><g><g><path class="st2" d="M17.453,6.958c0,3.341-2.363,6.05-2.363,6.05s-2.363-2.708-2.363-6.05s2.363-6.05,2.363-6.05       S17.453,3.617,17.453,6.958z"/><path class="st2" d="M9.687,8.351c2.612,2.083,3.256,5.619,3.256,5.619s-3.591,0.159-6.203-1.924S3.484,6.427,3.484,6.427       S7.075,6.268,9.687,8.351z"/><path class="st2" d="M5.935,15.291c3.257-0.743,6.424,0.958,6.424,0.958s-2.115,2.907-5.372,3.65       c-3.257,0.743-6.424-0.958-6.424-0.958S2.677,16.034,5.935,15.291z"/><path class="st2" d="M9.021,22.552c1.45-3.01,4.754-4.425,4.754-4.425s0.954,3.466-0.496,6.476s-4.754,4.425-4.754,4.425       S7.571,25.562,9.021,22.552z"/><path class="st2" d="M16.622,24.666c-1.45-3.01-0.496-6.476-0.496-6.476s3.304,1.415,4.754,4.425       c1.45,3.01,0.496,6.476,0.496,6.476S18.071,27.677,16.622,24.666z"/><path class="st2" d="M23.014,20.042c-3.257-0.743-5.372-3.65-5.372-3.65s3.166-1.701,6.424-0.958       c3.257,0.743,5.372,3.65,5.372,3.65S26.271,20.785,23.014,20.042z"/><path class="st2" d="M23.384,12.161c-2.612,2.083-6.203,1.924-6.203,1.924s0.644-3.536,3.256-5.619s6.203-1.924,6.203-1.924       S25.996,10.078,23.384,12.161z"/></g><circle class="st2" cx="15.09" cy="15.496" r="2.349"/></g><circle cx="15.141" cy="13.859" r="0.229"/><circle cx="14.751" cy="14.7" r="0.229"/><circle cx="16.582" cy="15.332" r="0.229"/><circle cx="13.629" cy="16.046" r="0.229"/><circle cx="15.371" cy="15.87" r="0.229"/><circle cx="15.882" cy="16.681" r="0.229"/><circle cx="15.319" cy="14.7" r="0.229"/><circle cx="15.319" cy="15.246" r="0.229"/><circle cx="15.882" cy="15.332" r="0.229"/><ellipse cx="15.741" cy="14.141" rx="0.229" ry="0.229" transform="matrix(0.1206 -0.9927 0.9927 0.1206 -0.1952 28.0618)"/><ellipse cx="14.459" cy="13.973" rx="0.229" ry="0.229" transform="matrix(0.1206 -0.9927 0.9927 0.1206 -1.1562 26.6411)"/><circle cx="16.276" cy="15.94" r="0.229"/><circle cx="16.276" cy="14.7" r="0.229"/><circle cx="14.476" cy="15.246" r="0.229"/><circle cx="14.706" cy="15.817" r="0.229"/><circle cx="14.229" cy="16.223" r="0.229"/><circle cx="14.182" cy="14.47" r="0.229"/><circle cx="13.723" cy="14.7" r="0.229"/><circle cx="15.229" cy="16.634" r="0.229"/><circle cx="14.459" cy="16.998" r="0.229"/><circle cx="13.723" cy="15.332" r="0.229"/></g><line class="st2" x1="15.09" x2="15.141" y1="12.344" y2="8.656"/><line class="st2" x1="12.542" x2="9.573" y1="13.629" y2="11.441"/><line class="st2" x1="12.009" x2="8.455" y1="16.277" y2="17.261"/><line class="st2" x1="13.595" x2="12.009" y1="18.422" y2="21.751"/><line class="st2" x1="16.215" x2="17.409" y1="18.127" y2="21.616"/><line class="st2" x1="18.056" x2="21.508" y1="16.349" y2="17.647"/><line class="st2" x1="17.359" x2="20.143" y1="13.86" y2="11.441"/></g></g></svg>